<?xml version="1.0"?><svg width="100%" height="100%" viewBox="0 0 4001 4410" version="1.1" xmlns="http://www.w3.org/2000/svg" xmlns:xlink="http://www.w3.org/1999/xlink" xml:space="preserve" xmlns:serif="http://www.serif.com/" style="fill-rule:evenodd;clip-rule:evenodd;stroke-linejoin:round;stroke-miterlimit:2;"><rect id="Mesa-de-trabajo1" x="0" y="0" width="4000" height="4409.647" style="fill:none;"></rect><g><path d="M2843.903,2467.964l9.617,430.446c0,12.829 6.417,19.242 19.242,19.242l29.112,0c14.072,-31.235 26.609,-63.094 37.619,-95.59c16.432,-48.498 30.858,-101.6 43.285,-159.316c12.423,-57.71 23.848,-122.644 34.27,-194.783l270.531,0c-5.611,44.087 -15.03,90.376 -28.257,138.874c-13.226,48.495 -28.253,96.388 -45.086,143.683c-16.836,47.293 -33.872,91.583 -51.101,132.862c-17.238,41.281 -33.264,77.35 -48.094,108.214c-14.83,30.86 -27.054,53.502 -36.677,67.934c-37.669,59.319 -79.953,108.813 -126.851,148.494c-46.89,39.674 -98.391,68.533 -154.5,86.568c-56.116,18.036 -118.237,25.453 -186.366,22.244l-15.636,-135.867c28.859,-10.421 55.912,-19.64 81.164,-27.654c25.249,-8.016 49.297,-18.637 72.139,-31.867c21.519,-12.454 42.503,-29.887 62.948,-52.302l-94.81,0c-20.035,0 -36.87,-6.21 -50.501,-18.637c-13.627,-12.425 -21.642,-27.451 -24.045,-45.086l-74.549,-537.461l276.547,0Z" style="fill:#fff;fill-rule:nonzero;"></path><path d="M2198.225,2451.132c80.161,0 144.89,10.822 194.187,32.465c49.295,21.642 83.163,56.309 101.603,104.002c18.433,47.693 22.039,111.62 10.82,191.782c-10.422,75.344 -29.063,135.264 -55.912,179.751c-26.854,44.487 -65.13,76.351 -114.826,95.59c-49.698,19.236 -114.628,28.856 -194.785,28.856c-79.357,0 -143.885,-10.619 -193.584,-31.864c-49.694,-21.241 -84.162,-55.508 -103.404,-102.803c-19.235,-47.293 -23.243,-110.217 -12.022,-188.773c11.223,-76.952 30.062,-137.872 56.51,-182.757c26.451,-44.892 64.93,-77.156 115.431,-96.794c50.5,-19.64 115.827,-29.456 195.982,-29.456Zm-4.806,170.733c-21.643,0 -38.479,4.008 -50.501,12.022c-12.022,8.019 -21.642,23.25 -28.855,45.695c-7.216,22.441 -14.028,55.704 -20.443,99.798c-4.81,36.867 -7.012,64.926 -6.611,84.162c0.397,19.239 5.611,32.265 15.633,39.076c10.02,6.815 25.446,10.221 46.286,10.221c20.843,0 36.876,-4.004 48.1,-12.019c11.217,-8.018 20.239,-23.046 27.054,-45.092c6.812,-22.044 13.427,-53.906 19.837,-95.59c5.609,-38.475 8.016,-67.534 7.214,-87.171c-0.799,-19.64 -5.613,-33.066 -14.43,-40.276c-8.816,-7.216 -23.243,-10.827 -43.284,-10.827" style="fill:#fff;fill-rule:nonzero;"></path><path d="M1737.72,2192.622c28.056,0 47.894,6.41 59.515,19.235c11.624,12.824 15.431,32.866 11.423,60.117l-8.415,61.323c-5.609,46.493 -34.07,69.736 -85.373,69.736l-94.981,0c-53.709,0 -77.754,-26.451 -72.143,-79.355l8.413,-61.32c5.615,-46.493 34.467,-69.736 86.575,-69.736l94.985,0Z" style="fill:#fff;fill-rule:nonzero;"></path><path d="M1784.614,2467.964l-78.156,536.258c-4.81,41.682 -16.832,81.959 -36.067,120.838c-19.242,38.875 -44.291,73.546 -75.154,104.005c-30.861,30.459 -66.732,54.107 -107.61,70.94l-138.272,-116.63c34.467,-32.064 59.716,-62.924 75.746,-92.582c16.033,-29.661 26.451,-61.722 31.261,-96.189l75.752,-526.641l252.5,0Z" style="fill:#fff;fill-rule:nonzero;"></path><path d="M976.619,2467.964l5.531,105.81c30.574,-30.505 64.599,-56.162 102.084,-76.955c54.906,-30.46 108.813,-45.688 161.715,-45.688c32.867,0 62.123,6.411 87.772,19.235c25.653,12.825 44.892,32.068 57.717,57.717c12.824,25.65 16.431,57.71 10.823,96.188l-62.527,444.877l-253.699,0l51.704,-363.118c2.407,-16.029 1.601,-27.454 -2.407,-34.266c-4.011,-6.815 -14.025,-9.419 -30.058,-7.815c-14.425,0.803 -31.262,5.212 -50.501,13.226c-15.549,6.481 -33.985,17.939 -55.3,34.373l-50.51,357.6l-252.497,0l82.962,-601.185l197.19,0Z" style="fill:#fff;fill-rule:nonzero;"></path><path d="M327.607,2558.142l299.123,0l-21.642,173.144l-301.617,0l-13.403,96.185c-2.407,15.234 0,26.856 7.21,34.872c7.216,8.015 19.643,12.019 37.277,12.019l288.569,0l-4.81,185.17c-38.475,5.609 -80.96,9.215 -127.453,10.82c-46.49,1.605 -93.785,2.607 -141.879,3.004c-48.094,0.404 -93.786,0.603 -137.069,0.603c-68.135,0 -118.231,-21.239 -150.299,-63.724c-32.061,-42.485 -44.087,-96.588 -36.067,-162.321l60.117,-429.25c8.018,-56.109 30.261,-100.797 66.734,-134.061c36.469,-33.263 85.165,-49.898 146.084,-49.898c48.9,0 98.397,0.401 148.494,1.203c50.099,0.803 98.397,2.203 144.887,4.208c46.493,2.002 88.173,5.813 125.047,11.421l-28.858,182.763l-288.569,0c-20.041,0 -34.664,3.407 -43.885,10.218c-9.218,6.815 -15.028,19.439 -17.435,37.876l-10.556,75.75Z" style="fill:#fff;fill-rule:nonzero;"></path><path d="M3687.022,1467.214c80.161,0 144.89,10.822 194.187,32.465c49.298,21.642 83.163,56.309 101.603,104.005c18.433,47.69 22.04,111.617 10.82,191.779c-10.422,75.344 -29.063,135.264 -55.912,179.751c-26.854,44.487 -65.13,76.351 -114.826,95.59c-49.698,19.235 -114.628,28.856 -194.785,28.856c-79.357,0 -143.885,-10.619 -193.584,-31.864c-49.694,-21.237 -84.162,-55.508 -103.404,-102.799c-19.235,-47.296 -23.243,-110.217 -12.022,-188.776c11.224,-76.952 30.062,-137.872 56.51,-182.757c26.453,-44.892 64.93,-77.156 115.431,-96.794c50.5,-19.64 115.827,-29.456 195.982,-29.456Zm-4.806,170.733c-21.642,0 -38.479,4.008 -50.501,12.026c-12.022,8.016 -21.642,23.247 -28.855,45.691c-7.216,22.441 -14.028,55.708 -20.443,99.798c-4.81,36.87 -7.012,64.926 -6.611,84.162c0.397,19.239 5.611,32.265 15.633,39.076c10.02,6.815 25.446,10.221 46.289,10.221c20.84,0 36.874,-4.004 48.097,-12.019c11.217,-8.018 20.239,-23.046 27.054,-45.092c6.812,-22.044 13.427,-53.907 19.838,-95.59c5.608,-38.475 8.015,-67.534 7.213,-87.171c-0.799,-19.64 -5.613,-33.066 -14.429,-40.276c-8.818,-7.216 -23.244,-10.827 -43.285,-10.827" style="fill:#fff;fill-rule:nonzero;"></path><path d="M3020.912,1467.214c46.492,0 94.586,3.806 144.282,11.421c49.698,7.617 93.387,19.436 131.059,35.469l-33.665,153.905l-211.617,0c-24.046,0 -43.088,3.607 -57.112,10.82c-14.028,7.216 -24.651,19.038 -31.867,35.473c-7.209,16.431 -12.824,38.674 -16.832,66.728c-4.81,32.866 -5.808,57.914 -3.004,75.151c2.808,17.233 10.418,28.855 22.848,34.868c12.421,6.01 30.657,9.018 54.706,9.018c16.034,0 34.872,-0.204 56.513,-0.603c21.643,-0.401 45.086,-1.203 70.339,-2.405c25.248,-1.204 50.296,-3.002 75.147,-5.409l18.036,159.915c-39.277,18.433 -82.361,31.061 -129.259,37.872c-46.89,6.815 -91.979,10.222 -135.264,10.222c-70.541,0 -129.656,-10.823 -177.352,-32.465c-47.69,-21.643 -81.562,-56.507 -101.596,-104.604c-20.042,-48.094 -24.851,-111.019 -14.433,-188.771c10.421,-72.143 27.655,-130.662 51.704,-175.547c24.048,-44.892 59.117,-77.956 105.209,-99.197c46.089,-21.244 106.81,-31.862 182.159,-31.862" style="fill:#fff;fill-rule:nonzero;"></path><path d="M2331.952,1467.214c32.064,0 66.929,1.199 104.604,3.606c37.677,2.403 74.345,5.609 110.02,9.619c35.67,4.008 65.127,8.818 88.373,14.429l-20.439,145.486l-229.658,0c-28.053,0 -49.494,0.2 -64.324,0.601c-14.831,0.401 -25.048,1.404 -30.661,3.006c-5.611,1.604 -8.816,4.409 -9.616,8.419c-0.805,5.609 2.6,10.82 10.218,15.629c7.614,4.81 23.848,10.419 48.696,16.832l131.059,34.872c32.866,8.818 60.117,21.642 81.762,38.475c21.642,16.836 37.271,37.876 46.887,63.121c9.623,25.249 12.428,54.708 8.42,88.377c-6.414,52.904 -22.441,92.782 -48.094,119.635c-25.65,26.854 -59.92,45.09 -102.806,54.709c-42.88,9.616 -94.384,14.429 -154.5,14.429c-24.85,0 -53.107,-0.601 -84.77,-1.805c-31.662,-1.203 -66.129,-3.806 -103.4,-7.818c-37.275,-4.008 -77.154,-9.616 -119.636,-16.832l20.439,-145.486l201.996,0c41.683,0 72.945,-0.601 93.788,-1.805c20.84,-1.203 35.069,-3.205 42.682,-6.012c7.618,-2.804 11.826,-6.608 12.625,-11.421c0.802,-4.008 -0.401,-7.417 -3.607,-10.221c-3.205,-2.805 -9.619,-6.01 -19.239,-9.617c-9.616,-3.606 -23.647,-7.818 -42.081,-12.627l-126.25,-36.068c-37.676,-11.223 -67.136,-26.655 -88.373,-46.293c-21.244,-19.64 -35.27,-43.083 -42.082,-70.338c-6.818,-27.254 -7.818,-56.911 -3.008,-88.978c5.609,-35.269 17.635,-65.127 36.072,-89.574c18.437,-24.449 47.89,-43.284 88.37,-56.513c40.48,-13.225 95.994,-19.837 166.532,-19.837" style="fill:#fff;fill-rule:nonzero;"></path><path d="M1651.409,1467.214c80.157,0 144.887,10.822 194.184,32.465c49.297,21.642 83.163,56.309 101.603,104.005c18.433,47.69 22.039,111.617 10.82,191.779c-10.422,75.344 -29.06,135.264 -55.91,179.751c-26.856,44.487 -65.133,76.351 -114.828,95.59c-49.698,19.235 -114.624,28.856 -194.785,28.856c-79.353,0 -143.881,-10.619 -193.584,-31.864c-49.694,-21.237 -84.162,-55.508 -103.4,-102.799c-19.239,-47.296 -23.247,-110.217 -12.026,-188.776c11.223,-76.952 30.062,-137.872 56.513,-182.757c26.451,-44.892 64.926,-77.156 115.427,-96.794c50.5,-19.64 115.831,-29.456 195.986,-29.456Zm-4.81,170.733c-21.643,0 -38.475,4.008 -50.501,12.026c-12.019,8.016 -21.642,23.247 -28.855,45.691c-7.214,22.441 -14.028,55.708 -20.443,99.798c-4.81,36.87 -7.012,64.926 -6.608,84.162c0.397,19.239 5.608,32.265 15.629,39.076c10.02,6.815 25.446,10.221 46.289,10.221c20.84,0 36.873,-4.004 48.097,-12.019c11.221,-8.018 20.242,-23.046 27.054,-45.092c6.812,-22.044 13.427,-53.907 19.837,-95.59c5.609,-38.475 8.016,-67.534 7.216,-87.171c-0.802,-19.64 -5.615,-33.066 -14.433,-40.276c-8.816,-7.216 -23.243,-10.827 -43.284,-10.827" style="fill:#fff;fill-rule:nonzero;"></path><path d="M1193.307,1208.704c27.257,0 46.894,6.411 58.92,19.236c12.019,12.824 16.431,32.866 13.223,60.12l-8.417,61.32c-5.611,46.493 -33.267,69.736 -82.962,69.736l-98.594,0c-52.908,0 -76.555,-26.451 -70.939,-79.355l8.412,-61.321c4.81,-46.492 32.465,-69.736 82.966,-69.736l97.391,0Z" style="fill:#fff;fill-rule:nonzero;"></path><path d="M1235.392,1484.05l-82.962,601.183l-251.3,0l82.966,-601.183l251.296,0Z" style="fill:#fff;fill-rule:nonzero;"></path><path d="M441.971,1738.948l-36.322,0l0.1,1.204c2.407,28.858 1.608,55.311 -2.4,79.352l-37.275,265.729l-262.118,0l116.63,-829.638l262.115,0l-32.461,229.651c-3.141,27.497 -9.556,55.951 -19.242,85.371l39.769,0l201.912,-315.022l288.567,0l-232.058,346.284c-12.824,20.042 -27.253,35.671 -43.284,46.895c-16.03,11.217 -30.459,19.235 -43.285,24.045l-1.203,4.806c11.223,4.81 23.247,15.633 36.071,32.465c12.825,16.832 22.846,34.07 30.058,51.704l144.286,323.439l-281.355,0l-128.506,-346.285Z" style="fill:#fff;fill-rule:nonzero;"></path></g></svg>